<svg xmlns="http://www.w3.org/2000/svg" version="1.1" xmlns:xlink="http://www.w3.org/1999/xlink" width="512" height="512" x="0" y="0" viewBox="0 0 512 512" style="enable-background:new 0 0 512 512" xml:space="preserve" class=""><g><path fill-rule="evenodd" d="M256 0c141.385 0 256 114.615 256 256S397.385 512 256 512 0 397.385 0 256 114.615 0 256 0zm162.5 355.241V164.978l-95.137 95.131zm-304.676 3.876h284.358l-86.908-86.908-33.123 33.118a8.563 8.563 0 0 1-6.05 2.5h-32.2a8.553 8.553 0 0 1-6.051-2.5l-33.122-33.118-86.908 86.908zM93.5 164.972v190.274l95.137-95.137zm312.906-12.089H105.6l137.844 137.844h25.117z" fill="#000000" opacity="1" data-original="#000000"></path></g></svg>