<svg xmlns="http://www.w3.org/2000/svg" version="1.1" xmlns:xlink="http://www.w3.org/1999/xlink" width="512" height="512" x="0" y="0" viewBox="0 0 152 152" style="enable-background:new 0 0 512 512" xml:space="preserve" class=""><g><g data-name="Layer 2"><g data-name="10.linkedin"><circle cx="76" cy="76" r="76" fill="#0b69c7" opacity="1" data-original="#0b69c7"></circle><g fill="#fff"><path d="M59 48.37A10.38 10.38 0 1 1 48.63 38 10.38 10.38 0 0 1 59 48.37z" fill="#ffffff" opacity="1" data-original="#ffffff" class=""></path><rect width="16.06" height="50.93" x="40.6" y="63.07" rx="2.57" fill="#ffffff" opacity="1" data-original="#ffffff" class=""></rect><path d="M113.75 89.47v22.17a2.36 2.36 0 0 1-2.36 2.36H99.67a2.36 2.36 0 0 1-2.36-2.36V90.16c0-3.21.93-14-8.38-14-7.22 0-8.69 7.42-9 10.75v24.78a2.36 2.36 0 0 1-2.34 2.31H66.25a2.35 2.35 0 0 1-2.36-2.36v-46.2a2.36 2.36 0 0 1 2.36-2.37h11.34A2.37 2.37 0 0 1 80 65.44v4c2.68-4 6.66-7.12 15.13-7.12 18.73-.01 18.62 17.52 18.62 27.15z" fill="#ffffff" opacity="1" data-original="#ffffff" class=""></path></g></g></g></g></svg>