<svg xmlns="http://www.w3.org/2000/svg" version="1.1" xmlns:xlink="http://www.w3.org/1999/xlink" width="512" height="512" x="0" y="0" viewBox="0 0 24 24" style="enable-background:new 0 0 512 512" xml:space="preserve"><g><path d="M12 13.738a3.083 3.083 0 0 0 .722-.086 2.924 2.924 0 0 0 2.138-2.138 2.954 2.954 0 0 0-3.583-3.584 2.924 2.924 0 0 0-2.138 2.138A2.95 2.95 0 0 0 12 13.738zm-1.4-3.318a1.429 1.429 0 0 1 1.032-1.031A1.56 1.56 0 0 1 12 9.343a1.423 1.423 0 0 1 1.022.425 1.449 1.449 0 0 1 .379 1.394 1.427 1.427 0 0 1-1.032 1.031A1.454 1.454 0 0 1 10.6 10.42zm10.944.371a9.433 9.433 0 0 1-3.013 6.947.75.75 0 0 1-1.031-1.093 7.951 7.951 0 0 0 2.54-5.854 8.041 8.041 0 0 0-16.082 0 7.942 7.942 0 0 0 2.57 5.882.749.749 0 1 1-1.019 1.1 9.537 9.537 0 1 1 16.031-6.981zm-3.3 0a6.218 6.218 0 0 1-1.7 4.272.75.75 0 1 1-1.092-1.028 4.744 4.744 0 1 0-6.908 0 .75.75 0 1 1-1.092 1.028 6.242 6.242 0 1 1 10.79-4.272zm-3.955 5.4a2.933 2.933 0 0 0-4.578 0l-1.435 1.796a2.932 2.932 0 0 0 2.289 4.763h2.87a2.932 2.932 0 0 0 2.289-4.763zm.437 4.245a1.405 1.405 0 0 1-1.291.812h-2.87a1.431 1.431 0 0 1-1.118-2.325l1.435-1.794a1.475 1.475 0 0 1 2.236 0l1.435 1.794a1.4 1.4 0 0 1 .173 1.515z" data-name="1" fill="#47494b" opacity="1" data-original="#000000" class=""></path></g></svg>