<svg width="16" height="18" viewBox="0 0 16 18" fill="none" xmlns="http://www.w3.org/2000/svg">
<path d="M13.1667 17.3333C12.4723 17.3333 11.882 17.0903 11.3959 16.6042C10.9098 16.1181 10.6667 15.5278 10.6667 14.8333C10.6667 14.75 10.6876 14.5556 10.7292 14.25L4.87508 10.8333C4.65286 11.0417 4.39591 11.2049 4.10425 11.3229C3.81258 11.441 3.50008 11.5 3.16675 11.5C2.4723 11.5 1.88203 11.2569 1.39591 10.7708C0.909804 10.2847 0.666748 9.69444 0.666748 9C0.666748 8.30555 0.909804 7.71528 1.39591 7.22916C1.88203 6.74305 2.4723 6.5 3.16675 6.5C3.50008 6.5 3.81258 6.55903 4.10425 6.67708C4.39591 6.79514 4.65286 6.95833 4.87508 7.16666L10.7292 3.75C10.7015 3.65278 10.6841 3.55903 10.6772 3.46875C10.6702 3.37847 10.6667 3.27778 10.6667 3.16666C10.6667 2.47222 10.9098 1.88194 11.3959 1.39583C11.882 0.90972 12.4723 0.666664 13.1667 0.666664C13.8612 0.666664 14.4515 0.90972 14.9376 1.39583C15.4237 1.88194 15.6667 2.47222 15.6667 3.16666C15.6667 3.86111 15.4237 4.45139 14.9376 4.9375C14.4515 5.42361 13.8612 5.66666 13.1667 5.66666C12.8334 5.66666 12.5209 5.60764 12.2292 5.48958C11.9376 5.37152 11.6806 5.20833 11.4584 5L5.60425 8.41666C5.63203 8.51389 5.64939 8.60764 5.65633 8.69791C5.66328 8.78819 5.66675 8.88889 5.66675 9C5.66675 9.11111 5.66328 9.2118 5.65633 9.30208C5.64939 9.39236 5.63203 9.48611 5.60425 9.58333L11.4584 13C11.6806 12.7917 11.9376 12.6285 12.2292 12.5104C12.5209 12.3924 12.8334 12.3333 13.1667 12.3333C13.8612 12.3333 14.4515 12.5764 14.9376 13.0625C15.4237 13.5486 15.6667 14.1389 15.6667 14.8333C15.6667 15.5278 15.4237 16.1181 14.9376 16.6042C14.4515 17.0903 13.8612 17.3333 13.1667 17.3333Z" fill="#000"/>
</svg>
